<?xml version="1.0" encoding="UTF-8"?>
<svg version="1.1" xmlns="http://www.w3.org/2000/svg" width="240" height="240">
<path d="M0 0 C15.20003957 12.92876929 15.20003957 12.92876929 17.4375 19.75 C18.0975 19.75 18.7575 19.75 19.4375 19.75 C31.84852695 41.44447512 36.71626509 58.78503725 36.4375 83.75 C35.4475 84.245 35.4475 84.245 34.4375 84.75 C33.7775 84.42 33.1175 84.09 32.4375 83.75 C32.58058594 81.91888672 32.58058594 81.91888672 32.7265625 80.05078125 C33.9637423 62.52853056 32.45602469 46.77338678 22.609375 31.7109375 C21.4375 29.75 21.4375 29.75 21.4375 27.75 C20.7775 27.75 20.1175 27.75 19.4375 27.75 C18.02734375 26.24609375 18.02734375 26.24609375 16.375 24.1875 C5.14684642 11.08798749 -9.92684925 4.85297389 -26.8125 2.875 C-44.40596455 1.86484893 -61.43828218 8.20657032 -74.5625 19.75 C-87.40711071 32.15987004 -94.20674569 46.91335741 -95.5625 64.75 C-95.5625 72.52335693 -94.31192059 79.66019181 -92.0859375 87.09375 C-91.0445879 92.37821065 -93.0950965 96.13702824 -95.5625 100.75 C-96.2225 100.75 -96.8825 100.75 -97.5625 100.75 C-98.00207031 100.26917969 -98.44164062 99.78835937 -98.89453125 99.29296875 C-101.02936683 97.31812085 -102.38485679 97.27011907 -105.25 97.0625 C-106.05824219 96.99675781 -106.86648437 96.93101562 -107.69921875 96.86328125 C-108.31410156 96.82589844 -108.92898437 96.78851563 -109.5625 96.75 C-109.5625 96.42 -109.5625 96.09 -109.5625 95.75 C-103.1275 95.255 -103.1275 95.255 -96.5625 94.75 C-97.0575 91.285 -97.0575 91.285 -97.5625 87.75 C-99.02623047 87.67652344 -99.02623047 87.67652344 -100.51953125 87.6015625 C-102.42798828 87.48941406 -102.42798828 87.48941406 -104.375 87.375 C-105.63957031 87.30539063 -106.90414062 87.23578125 -108.20703125 87.1640625 C-111.5625 86.75 -111.5625 86.75 -114.5625 84.75 C-117.87336259 85.03274138 -117.87336259 85.03274138 -120.5625 86.75 C-122.74542774 86.98481693 -124.93453174 87.16363323 -127.125 87.3125 C-128.32253906 87.39628906 -129.52007812 87.48007813 -130.75390625 87.56640625 C-131.68074219 87.62699219 -132.60757813 87.68757813 -133.5625 87.75 C-134.31207157 91.22147842 -134.31207157 91.22147842 -134.5625 94.75 C-131.0975 95.245 -131.0975 95.245 -127.5625 95.75 C-130.73570782 99.28586014 -132.72993695 101.33578031 -137.5625 101.75 C-137.2325 98.78 -136.9025 95.81 -136.5625 92.75 C-137.2225 92.75 -137.8825 92.75 -138.5625 92.75 C-138.376875 91.80125 -138.19125 90.8525 -138 89.875 C-137.27563368 86.85131207 -137.27563368 86.85131207 -138.5625 84.75 C-143.5125 84.75 -148.4625 84.75 -153.5625 84.75 C-154.27186574 57.63646509 -149.19278947 32.61912254 -130.5625 11.75 C-129.9025 11.75 -129.2425 11.75 -128.5625 11.75 C-128.5625 11.09 -128.5625 10.43 -128.5625 9.75 C-127.9025 9.75 -127.2425 9.75 -126.5625 9.75 C-126.5625 9.09 -126.5625 8.43 -126.5625 7.75 C-125.9025 7.75 -125.2425 7.75 -124.5625 7.75 C-124.5625 7.09 -124.5625 6.43 -124.5625 5.75 C-123.9025 5.75 -123.2425 5.75 -122.5625 5.75 C-122.5625 5.09 -122.5625 4.43 -122.5625 3.75 C-88.1391985 -25.18708783 -35.9058622 -28.57403579 0 0 Z " fill="#3F6FB4" transform="translate(178.5625,44.25)"/>
<path d="M0 0 C0.99 0 1.98 0 3 0 C3.06058594 1.05960938 3.12117188 2.11921875 3.18359375 3.2109375 C3.26800127 4.59897221 3.35264917 5.98699232 3.4375 7.375 C3.47681641 8.07367188 3.51613281 8.77234375 3.55664062 9.4921875 C3.74280134 13.37360492 3.74280134 13.37360492 5 17 C8.85394798 17.0896267 12.24299922 16.82470749 16 16 C18.33177975 15.65596692 20.66487041 15.32050798 23 15 C23.66 12.03 24.32 9.06 25 6 C25.66 7.32 26.32 8.64 27 10 C31.21337386 11.93815197 35.10000221 12.22105209 39.5625 11.125 C40.7690625 10.568125 40.7690625 10.568125 42 10 C42.66 11.98 43.32 13.96 44 16 C44.55945313 15.84660156 45.11890625 15.69320312 45.6953125 15.53515625 C53.30163102 14.05547049 58.14160639 16.69789895 64.62890625 20.2109375 C78.58467269 27.61735816 95.47469762 27.42428059 110.37890625 22.99609375 C117.02932649 20.6170178 122.82039684 17.51127974 128.66015625 13.55078125 C130.72488063 12.18234122 132.76068348 11.04984123 135 10 C135 9.34 135 8.68 135 8 C135.66 8 136.32 8 137 8 C137 7.34 137 6.68 137 6 C137.66 6 138.32 6 139 6 C139.33 5.01 139.66 4.02 140 3 C140.99 3.33 141.98 3.66 143 4 C142.34 5.98 141.68 7.96 141 10 C140.34 10 139.68 10 139 10 C139 12.31 139 14.62 139 17 C140.98 17.33 142.96 17.66 145 18 C143.89336599 21.08692645 143.2693107 22.71525181 141 25 C137.78505133 26.02948153 134.58462908 26.59386665 131.26953125 27.22265625 C126.47397876 28.36281748 123.12029952 30.15137504 120 34 C118.27122269 37.57576162 117.03588967 41.16993426 116 45 C115.443125 44.55527344 114.88625 44.11054688 114.3125 43.65234375 C109.046343 39.625251 109.046343 39.625251 102.6875 39 C98.58622401 39.9911175 98.58622401 39.9911175 95 42 C93.46556912 45.45246947 93.744506 49.29533705 94 53 C94.95069488 55.02390199 95.94485144 57.02853823 97 59 C71.8463238 67.48061751 44.8535069 67.72340196 20.63867188 55.84130859 C15.9932663 53.38978201 11.47724628 50.74490575 7 48 C7 47.34 7 46.68 7 46 C6.30519531 45.79246094 5.61039063 45.58492187 4.89453125 45.37109375 C1.08096458 43.56466743 -1.38887851 41.05986972 -4.3125 38.0625 C-4.8799292 37.48709473 -5.4473584 36.91168945 -6.03198242 36.31884766 C-19 22.9140786 -19 22.9140786 -19 17 C-18.195625 16.649375 -17.39125 16.29875 -16.5625 15.9375 C-13.803117 14.27893075 -13.803117 14.27893075 -13.4453125 11.65625 C-13.13935448 8.42978362 -13 5.23976865 -13 2 C-11.68 2.33 -10.36 2.66 -9 3 C-8.93941406 3.69867188 -8.87882812 4.39734375 -8.81640625 5.1171875 C-8.73261719 6.02726563 -8.64882813 6.93734375 -8.5625 7.875 C-8.48128906 8.77992188 -8.40007813 9.68484375 -8.31640625 10.6171875 C-8.13010715 13.01110861 -8.13010715 13.01110861 -7 15 C-5.02 15 -3.04 15 -1 15 C-0.67 10.05 -0.34 5.1 0 0 Z " fill="#3F6FB4" transform="translate(57,150)"/>
<path d="M0 0 C1.18142578 0.10054687 1.18142578 0.10054687 2.38671875 0.203125 C4.59967215 0.42259145 6.79628736 0.70359421 9 1 C9.928125 1.0825 10.85625 1.165 11.8125 1.25 C15.53398072 2.52593625 17.29567023 5.59134047 19 9 C19.203125 10.875 19.203125 10.875 19.25 13 C19.27578125 13.70125 19.3015625 14.4025 19.328125 15.125 C19.21984375 15.74375 19.1115625 16.3625 19 17 C16 19 16 19 13.4375 18.6875 C11 18 11 18 9 17 C9 16.34 9 15.68 9 15 C5.48990421 13.03434636 1.90381482 11.93980727 -2 11 C-2.99 11.495 -2.99 11.495 -4 12 C-3.94264057 13.96212764 -3.94264057 13.96212764 -3 16 C-0.43230834 17.26485947 -0.43230834 17.26485947 2.6875 18.0625 C7.08091538 19.38733205 10.99590525 20.77550292 15 23 C15 23.66 15 24.32 15 25 C15.66 25 16.32 25 17 25 C19.80923568 29.68205947 20.72167389 33.61359346 20 39 C18.38793929 45.23330141 15.39333016 47.57149087 10.15625 50.8359375 C5.28941734 53.4633218 0.76476495 53.25383057 -4.625 53.3125 C-5.48996094 53.34150391 -6.35492188 53.37050781 -7.24609375 53.40039062 C-13.47070065 53.46105021 -18.71078569 52.4431748 -24 49 C-27.2518718 43.97437994 -27.65248397 38.84726016 -27 33 C-26 32 -26 32 -23.62890625 31.6953125 C-21 32 -21 32 -19.33984375 33.6796875 C-18.87707031 34.40414062 -18.41429687 35.12859375 -17.9375 35.875 C-15.92575269 38.98457064 -14.54918875 40.75875366 -11 42 C-8.40845081 42.24029959 -8.40845081 42.24029959 -5.75 42.125 C-4.41195312 42.09792969 -4.41195312 42.09792969 -3.046875 42.0703125 C-2.37140625 42.04710937 -1.6959375 42.02390625 -1 42 C-1.57099223 40.01699684 -1.57099223 40.01699684 -3 38 C-5.84755247 36.63771796 -5.84755247 36.63771796 -9.1875 35.625 C-16.48678846 32.97951203 -20.96716254 30.36688705 -25 23.6875 C-26.43770799 18.38595178 -26.57870571 13.95426915 -23.9375 9.01171875 C-18.11348843 1.28497612 -9.25005727 -0.842387 0 0 Z " fill="#3F6FB4" transform="translate(201,177)"/>
<path d="M0 0 C1.79244141 0.01740234 1.79244141 0.01740234 3.62109375 0.03515625 C5.41740234 0.04869141 5.41740234 0.04869141 7.25 0.0625 C8.17683594 0.07410156 9.10367188 0.08570313 10.05859375 0.09765625 C10.05859375 3.72765625 10.05859375 7.35765625 10.05859375 11.09765625 C6.75859375 11.09765625 3.45859375 11.09765625 0.05859375 11.09765625 C0.05859375 11.75765625 0.05859375 12.41765625 0.05859375 13.09765625 C3.68859375 13.09765625 7.31859375 13.09765625 11.05859375 13.09765625 C11.05859375 12.10765625 11.05859375 11.11765625 11.05859375 10.09765625 C12.04859375 10.09765625 13.03859375 10.09765625 14.05859375 10.09765625 C14.05859375 8.77765625 14.05859375 7.45765625 14.05859375 6.09765625 C13.06859375 6.09765625 12.07859375 6.09765625 11.05859375 6.09765625 C11.05859375 4.77765625 11.05859375 3.45765625 11.05859375 2.09765625 C13.36859375 2.09765625 15.67859375 2.09765625 18.05859375 2.09765625 C18.05859375 1.43765625 18.05859375 0.77765625 18.05859375 0.09765625 C19.37859375 0.09765625 20.69859375 0.09765625 22.05859375 0.09765625 C22.05859375 0.75765625 22.05859375 1.41765625 22.05859375 2.09765625 C24.69859375 2.09765625 27.33859375 2.09765625 30.05859375 2.09765625 C30.05859375 3.41765625 30.05859375 4.73765625 30.05859375 6.09765625 C29.06859375 6.09765625 28.07859375 6.09765625 27.05859375 6.09765625 C27.05859375 7.08765625 27.05859375 8.07765625 27.05859375 9.09765625 C28.04859375 9.42765625 29.03859375 9.75765625 30.05859375 10.09765625 C30.05859375 11.41765625 30.05859375 12.73765625 30.05859375 14.09765625 C27.41859375 14.09765625 24.77859375 14.09765625 22.05859375 14.09765625 C22.05859375 14.75765625 22.05859375 15.41765625 22.05859375 16.09765625 C24.69859375 16.09765625 27.33859375 16.09765625 30.05859375 16.09765625 C30.05859375 17.41765625 30.05859375 18.73765625 30.05859375 20.09765625 C27.41859375 20.09765625 24.77859375 20.09765625 22.05859375 20.09765625 C22.05859375 21.41765625 22.05859375 22.73765625 22.05859375 24.09765625 C20.73859375 24.09765625 19.41859375 24.09765625 18.05859375 24.09765625 C18.05859375 22.77765625 18.05859375 21.45765625 18.05859375 20.09765625 C15.74859375 20.09765625 13.43859375 20.09765625 11.05859375 20.09765625 C11.05859375 21.08765625 11.05859375 22.07765625 11.05859375 23.09765625 C12.37859375 23.09765625 13.69859375 23.09765625 15.05859375 23.09765625 C15.05859375 24.08765625 15.05859375 25.07765625 15.05859375 26.09765625 C19.01859375 26.09765625 22.97859375 26.09765625 27.05859375 26.09765625 C27.05859375 27.41765625 27.05859375 28.73765625 27.05859375 30.09765625 C23.09859375 30.09765625 19.13859375 30.09765625 15.05859375 30.09765625 C15.05859375 30.75765625 15.05859375 31.41765625 15.05859375 32.09765625 C20.00859375 32.09765625 24.95859375 32.09765625 30.05859375 32.09765625 C30.05859375 33.41765625 30.05859375 34.73765625 30.05859375 36.09765625 C18.50859375 36.09765625 6.95859375 36.09765625 -4.94140625 36.09765625 C-4.94140625 34.77765625 -4.94140625 33.45765625 -4.94140625 32.09765625 C0.33859375 32.09765625 5.61859375 32.09765625 11.05859375 32.09765625 C11.05859375 31.43765625 11.05859375 30.77765625 11.05859375 30.09765625 C6.76859375 30.09765625 2.47859375 30.09765625 -1.94140625 30.09765625 C-1.94140625 28.77765625 -1.94140625 27.45765625 -1.94140625 26.09765625 C2.34859375 26.09765625 6.63859375 26.09765625 11.05859375 26.09765625 C11.05859375 25.43765625 11.05859375 24.77765625 11.05859375 24.09765625 C7.09859375 24.09765625 3.13859375 24.09765625 -0.94140625 24.09765625 C-1.27140625 23.43765625 -1.60140625 22.77765625 -1.94140625 22.09765625 C-3.9660388 21.44552333 -3.9660388 21.44552333 -5.94140625 21.09765625 C-5.6360849 17.78445294 -5.32095049 14.4722567 -5.00390625 11.16015625 C-4.91689453 10.21462891 -4.82988281 9.26910156 -4.74023438 8.29492188 C-4.65322266 7.39580078 -4.56621094 6.49667969 -4.4765625 5.5703125 C-4.39801025 4.73765869 -4.31945801 3.90500488 -4.23852539 3.04711914 C-3.75392992 -0.13241645 -3.31559286 0.11007944 0 0 Z M0.05859375 4.09765625 C0.05859375 5.41765625 0.05859375 6.73765625 0.05859375 8.09765625 C2.36859375 8.09765625 4.67859375 8.09765625 7.05859375 8.09765625 C7.05859375 6.77765625 7.05859375 5.45765625 7.05859375 4.09765625 C4.74859375 4.09765625 2.43859375 4.09765625 0.05859375 4.09765625 Z M18.05859375 6.09765625 C18.05859375 7.41765625 18.05859375 8.73765625 18.05859375 10.09765625 C19.37859375 10.09765625 20.69859375 10.09765625 22.05859375 10.09765625 C22.38859375 8.77765625 22.71859375 7.45765625 23.05859375 6.09765625 C21.40859375 6.09765625 19.75859375 6.09765625 18.05859375 6.09765625 Z M11.05859375 14.09765625 C11.05859375 14.75765625 11.05859375 15.41765625 11.05859375 16.09765625 C13.36859375 16.09765625 15.67859375 16.09765625 18.05859375 16.09765625 C18.05859375 15.43765625 18.05859375 14.77765625 18.05859375 14.09765625 C15.74859375 14.09765625 13.43859375 14.09765625 11.05859375 14.09765625 Z M2.05859375 17.09765625 C2.05859375 18.08765625 2.05859375 19.07765625 2.05859375 20.09765625 C3.70859375 20.09765625 5.35859375 20.09765625 7.05859375 20.09765625 C7.05859375 19.10765625 7.05859375 18.11765625 7.05859375 17.09765625 C5.40859375 17.09765625 3.75859375 17.09765625 2.05859375 17.09765625 Z " fill="#406FB5" transform="translate(202.94140625,129.90234375)"/>
<path d="M0 0 C0.495 1.98 0.495 1.98 1 4 C-2.67387495 4.85298376 -6.0447393 5.10789471 -9.8125 5.0625 C-11.27623047 5.04896484 -11.27623047 5.04896484 -12.76953125 5.03515625 C-13.87361328 5.01775391 -13.87361328 5.01775391 -15 5 C-15 6.65 -15 8.3 -15 10 C-14.01 9.67 -13.02 9.34 -12 9 C-9.77181559 8.93062938 -7.54165476 8.91542916 -5.3125 8.9375 C-3.54326172 8.95103516 -3.54326172 8.95103516 -1.73828125 8.96484375 C-0.83464844 8.97644531 0.06898437 8.98804688 1 9 C1 10.32 1 11.64 1 13 C-4.38490641 13.91657981 -9.54230189 14.11138159 -15 14 C-15 15.65 -15 17.3 -15 19 C-14.31550781 18.83628906 -13.63101562 18.67257813 -12.92578125 18.50390625 C-9.6256722 17.93552966 -6.53445931 17.90369233 -3.1875 17.9375 C-2.02605469 17.94652344 -0.86460938 17.95554688 0.33203125 17.96484375 C1.21246094 17.97644531 2.09289063 17.98804688 3 18 C3 19.32 3 20.64 3 22 C-3.04829486 22.89604368 -8.8894576 23.11269443 -15 23 C-14.67 25.31 -14.34 27.62 -14 30 C-9.71 30 -5.42 30 -1 30 C-1 28.02 -1 26.04 -1 24 C0.65 24 2.3 24 4 24 C3.8864371 25.64666203 3.75882619 27.29236082 3.625 28.9375 C3.55539063 29.85402344 3.48578125 30.77054688 3.4140625 31.71484375 C3.20910156 32.84599609 3.20910156 32.84599609 3 34 C0.72926921 35.1353654 -0.54283279 35.12892412 -3.0625 35.1328125 C-3.85914062 35.13410156 -4.65578125 35.13539063 -5.4765625 35.13671875 C-6.30929688 35.13285156 -7.14203125 35.12898438 -8 35.125 C-8.83273438 35.12886719 -9.66546875 35.13273437 -10.5234375 35.13671875 C-11.71839844 35.13478516 -11.71839844 35.13478516 -12.9375 35.1328125 C-13.66839844 35.13168457 -14.39929688 35.13055664 -15.15234375 35.12939453 C-17 35 -17 35 -19 34 C-19 30.7 -19 27.4 -19 24 C-22.96 24 -26.92 24 -31 24 C-31.33 22.68 -31.66 21.36 -32 20 C-25.565 19.505 -25.565 19.505 -19 19 C-19 17.35 -19 15.7 -19 14 C-22.63 14.33 -26.26 14.66 -30 15 C-30.33 13.35 -30.66 11.7 -31 10 C-27.04 10 -23.08 10 -19 10 C-19 8.68 -19 7.36 -19 6 C-22.63 6 -26.26 6 -30 6 C-30 4.35 -30 2.7 -30 1 C-26.68767894 0.82964947 -23.37512086 0.66440908 -20.0625 0.5 C-19.13630859 0.45230469 -18.21011719 0.40460938 -17.25585938 0.35546875 C-11.49540167 0.0724989 -5.76737595 -0.04732206 0 0 Z " fill="#3F6FB4" transform="translate(39,130)"/>
<path d="M0 0 C1.32 0.33 2.64 0.66 4 1 C4 1.66 4 2.32 4 3 C8.95 3 13.9 3 19 3 C19 4.32 19 5.64 19 7 C17.74703125 7.01417969 16.4940625 7.02835938 15.203125 7.04296875 C13.55204672 7.08987438 11.90100618 7.13812175 10.25 7.1875 C9.425 7.19330078 8.6 7.19910156 7.75 7.20507812 C2.50941428 7.3635397 2.50941428 7.3635397 -1.578125 10.55078125 C-2.28195313 11.76314453 -2.28195313 11.76314453 -3 13 C-1.35 13.33 0.3 13.66 2 14 C2 12.02 2 10.04 2 8 C3.32 8 4.64 8 6 8 C6 9.98 6 11.96 6 14 C9.96 14 13.92 14 18 14 C18.02683697 17.14588944 18.04675902 20.29155271 18.0625 23.4375 C18.07087891 24.33533203 18.07925781 25.23316406 18.08789062 26.15820312 C18.09111328 27.01220703 18.09433594 27.86621094 18.09765625 28.74609375 C18.10289307 29.53685303 18.10812988 30.3276123 18.11352539 31.14233398 C18 33 18 33 17 34 C15.48071962 34.07179964 13.95832518 34.08392007 12.4375 34.0625 C11.61121094 34.05347656 10.78492187 34.04445312 9.93359375 34.03515625 C9.29550781 34.02355469 8.65742187 34.01195312 8 34 C8 32.68 8 31.36 8 30 C9.98 30 11.96 30 14 30 C14 26.04 14 22.08 14 18 C11.36 18 8.72 18 6 18 C6 23.94 6 29.88 6 36 C4.68 36 3.36 36 2 36 C2 30.06 2 24.12 2 18 C-0.64 18 -3.28 18 -6 18 C-6 23.28 -6 28.56 -6 34 C-7.32 34 -8.64 34 -10 34 C-10.33 29.38 -10.66 24.76 -11 20 C-12.32 20.33 -13.64 20.66 -15 21 C-15.33 19.68 -15.66 18.36 -16 17 C-15.18595703 16.41992188 -15.18595703 16.41992188 -14.35546875 15.828125 C-13.64003906 15.30734375 -12.92460938 14.7865625 -12.1875 14.25 C-11.47980469 13.73953125 -10.77210937 13.2290625 -10.04296875 12.703125 C-7.62589255 10.82102812 -7.62589255 10.82102812 -5 7 C-8.63 7 -12.26 7 -16 7 C-16 5.68 -16 4.36 -16 3 C-11.05 3 -6.1 3 -1 3 C-0.67 2.01 -0.34 1.02 0 0 Z " fill="#3F6FB5" transform="translate(61,130)"/>
<path d="M0 0 C3.68986579 2.9537103 5.75318813 5.87673959 6.359375 10.54296875 C6.44318698 16.52714422 6.27956143 20.36489754 2.0234375 24.95703125 C-1.2673291 27.67549062 -3.07297114 28.89009856 -7.3515625 29.20703125 C-8.2178125 29.12453125 -9.0840625 29.04203125 -9.9765625 28.95703125 C-10.3065625 27.63703125 -10.6365625 26.31703125 -10.9765625 24.95703125 C-10.16251953 24.59351563 -10.16251953 24.59351563 -9.33203125 24.22265625 C-3.63908485 21.72389147 -3.63908485 21.72389147 0.0234375 16.95703125 C0.38700259 12.88510228 0.69578403 9.23672927 -1.9765625 5.95703125 C-5.01855722 4.66471483 -5.01855722 4.66471483 -7.9765625 3.95703125 C-8.15832031 4.74207031 -8.34007813 5.52710938 -8.52734375 6.3359375 C-12.19084821 21.64750744 -12.19084821 21.64750744 -16.7890625 25.01953125 C-20.69300324 26.16774911 -22.37039782 25.76011359 -25.9765625 23.95703125 C-28.96596525 19.47292712 -28.56466776 15.21322203 -27.9765625 9.95703125 C-26.25897438 4.61884546 -22.8701521 1.55362981 -17.9765625 -1.04296875 C-12.23911752 -2.52974851 -5.36498996 -2.83093343 0 0 Z M-19.9765625 5.95703125 C-22.33012526 9.15115214 -23.67852502 11.98319822 -23.9765625 15.95703125 C-23.12676775 18.70959369 -23.12676775 18.70959369 -21.9765625 20.95703125 C-19.07893113 19.95784802 -18.02454431 19.02811542 -16.2890625 16.45703125 C-14.60787857 11.9738741 -14.24898534 7.71034007 -13.9765625 2.95703125 C-16.28281623 2.95703125 -18.17268223 4.71149487 -19.9765625 5.95703125 Z " fill="#3F6FB5" transform="translate(111.9765625,135.04296875)"/>
<path d="M0 0 C9.24 0 18.48 0 28 0 C28.04125 2.92875 28.0825 5.8575 28.125 8.875 C28.14320801 9.79651855 28.16141602 10.71803711 28.18017578 11.66748047 C28.1851709 12.39338379 28.19016602 13.11928711 28.1953125 13.8671875 C28.20578613 14.61081543 28.21625977 15.35444336 28.22705078 16.12060547 C28 18 28 18 26 20 C23.31160615 20.26991906 20.70858064 20.08737357 18 20 C17.505 17.525 17.505 17.525 17 15 C12.71 14.67 8.42 14.34 4 14 C4 15.98 4 17.96 4 20 C2.68 20 1.36 20 0 20 C0 13.4 0 6.8 0 0 Z M4 4 C4 4.33 4 4.66 4 5 C10.6 5 17.2 5 24 5 C24 4.67 24 4.34 24 4 C17.4 4 10.8 4 4 4 Z M4 9 C4 9.66 4 10.32 4 11 C10.6 11 17.2 11 24 11 C24 10.34 24 9.68 24 9 C17.4 9 10.8 9 4 9 Z " fill="#3F6FB5" transform="translate(125,146)"/>
<path d="M0 0 C1.32 0 2.64 0 4 0 C4 0.66 4 1.32 4 2 C8.62 2 13.24 2 18 2 C17.67 4.64 17.34 7.28 17 10 C17.66 10.33 18.32 10.66 19 11 C19 12.32 19 13.64 19 15 C7.45 15 -4.1 15 -16 15 C-16 13.68 -16 12.36 -16 11 C-15.01 10.67 -14.02 10.34 -13 10 C-13.33 7.36 -13.66 4.72 -14 2 C-9.38 2 -4.76 2 0 2 C0 1.34 0 0.68 0 0 Z " fill="#3F6FB5" transform="translate(137,130)"/>
<path d="M0 0 C2.375 1.0625 2.375 1.0625 4 3 C5.06405688 7.39810175 5.53726987 9.69924137 3.8125 13.875 C1.82641659 16.20351159 0.95146997 17.20230541 -2 18 C-6.3482291 18.15241215 -9.13693543 17.73360489 -12.5 14.875 C-14.41801815 11.19879854 -14.65812497 9.09499984 -14 5 C-9.38620084 -0.5851253 -7.03612388 -1.45574977 0 0 Z " fill="#3F6FB5" transform="translate(166,191)"/>
<path d="M0 0 C3.35257489 2.14908647 3.89145337 3.57356681 4.875 7.4375 C5.00130762 11.03726716 4.7715742 12.89974516 3 16 C-1.0016041 18.66773607 -4.29431148 18.71478813 -9 18 C-11.50160818 16.12379387 -12.61945652 14.76108697 -14 12 C-14.43023798 8.12785818 -14.31669086 6.47503629 -12.125 3.1875 C-8.53858528 -0.50439751 -4.9744781 -0.68953162 0 0 Z " fill="#3F6EB3" transform="translate(166,212)"/>
<path d="M0 0 C2.97 0.495 2.97 0.495 6 1 C5.67 1.99 5.34 2.98 5 4 C4.87906505 6.28932678 4.82461674 8.58251324 4.8125 10.875 C4.79832031 12.08929688 4.78414062 13.30359375 4.76953125 14.5546875 C4.99228354 17.88464542 5.38529561 20.0924592 7 23 C7.99 23.33 8.98 23.66 10 24 C10.99 20.535 10.99 20.535 12 17 C14.475 17.99 14.475 17.99 17 19 C14.78251599 26.50533049 14.78251599 26.50533049 12 29 C8.5625 29.5625 8.5625 29.5625 5 29 C1.31900883 25.71695382 -0.3329754 21.82115246 -1 17 C-1.56455863 5.14426877 -1.56455863 5.14426877 0 0 Z " fill="#3F6FB5" transform="translate(162,134)"/>
<path d="M0 0 C4.84235642 1.13937798 7.00620859 3.94300282 9.7734375 7.82421875 C11.53861644 10.95544381 11.85135617 13.43254813 12 17 C10.35 17.33 8.7 17.66 7 18 C6.76925781 17.40832031 6.53851563 16.81664062 6.30078125 16.20703125 C4.18776069 11.08734113 2.20411055 7.62020631 -2 4 C-1.34 2.68 -0.68 1.36 0 0 Z " fill="#3F6FB5" transform="translate(183,136)"/>
<path d="M0 0 C7.92 0 15.84 0 24 0 C24 0.99 24 1.98 24 3 C20.37515001 3.08681476 16.75056557 3.14032721 13.125 3.1875 C11.57619141 3.22520508 11.57619141 3.22520508 9.99609375 3.26367188 C9.00996094 3.27333984 8.02382812 3.28300781 7.0078125 3.29296875 C5.64100342 3.31653442 5.64100342 3.31653442 4.24658203 3.34057617 C3.50520996 3.22818604 2.76383789 3.1157959 2 3 C1.34 2.01 0.68 1.02 0 0 Z " fill="#567ABF" transform="translate(108,25)"/>
<path d="M0 0 C1.32 0 2.64 0 4 0 C4 2.64 4 5.28 4 8 C2.68 7.67 1.36 7.34 0 7 C0 4.69 0 2.38 0 0 Z " fill="#3F6FB5" transform="translate(69,150)"/>
<path d="M0 0 C0.99 0.33 1.98 0.66 3 1 C2.625 3.4375 2.625 3.4375 2 6 C1.01 6.495 1.01 6.495 0 7 C0 4.69 0 2.38 0 0 Z " fill="#3F6FB5" transform="translate(91,146)"/>
<path d="M0 0 C1.32 0 2.64 0 4 0 C4 0.99 4 1.98 4 3 C2.68 3 1.36 3 0 3 C0 2.01 0 1.02 0 0 Z " fill="#3F6FB5" transform="translate(32,155)"/>
<path d="" fill="#3F6FB5" transform="translate(0,0)"/>
</svg>
